<svg id="Layer_1" data-name="Layer 1" xmlns="http://www.w3.org/2000/svg" viewBox="0 0 344.43 135.97"><defs><style>.cls-1{fill:#a374af;}.cls-2{fill:#434a56;}</style></defs><path class="cls-1" d="M57.57,106.7a5,5,0,0,0-4.64,3.15,43,43,0,0,1,.4-85.41,5,5,0,1,0-.73-2.93,46,46,0,0,0,.12,91.34,5,5,0,1,0,4.85-6.15Z"/><path class="cls-1" d="M150.74,96.59,72.69,97l-10.46.17a29.9,29.9,0,0,1,0-59.8H67.6a6.62,6.62,0,0,0,6.61-6.61V25.82a5,5,0,1,0-3,0v4.93a3.61,3.61,0,0,1-3.61,3.61H62.23a32.9,32.9,0,1,0,0,65.8L72.72,100l78-.4a3.75,3.75,0,0,1,2.57,1,3.6,3.6,0,0,1,1.06,2.56v2.91a3.61,3.61,0,0,1-3.61,3.61H77.3a5,5,0,1,0,.3,3h73.17a6.61,6.61,0,0,0,6.61-6.61V103.2a6.61,6.61,0,0,0-6.64-6.61Z"/><path class="cls-2" d="M194.05,58.06a12.5,12.5,0,0,1,4.8,4.9,16.17,16.17,0,0,1,0,14.75,12.5,12.5,0,0,1-4.8,4.9,13.35,13.35,0,0,1-6.72,1.73,10.09,10.09,0,0,1-7.55-2.85v12.1h-9.5V56.79h9.05v2.7q2.64-3.15,8-3.15A13.34,13.34,0,0,1,194.05,58.06Zm-4.62,17a6.69,6.69,0,0,0,1.6-4.72,6.72,6.72,0,0,0-1.6-4.73,5.75,5.75,0,0,0-8.2,0,6.68,6.68,0,0,0-1.6,4.73,6.65,6.65,0,0,0,1.6,4.72,5.72,5.72,0,0,0,8.2,0Z"/><path class="cls-2" d="M260.23,56.79h9.5v27.1h-9.5Z"/><path class="cls-2" d="M287.7,57.26a14.49,14.49,0,0,1,5.33-.92v8.55a19.58,19.58,0,0,0-2.15-.15,5.91,5.91,0,0,0-6.5,6.7V83.89h-9.5V56.79h9.05V60A8.77,8.77,0,0,1,287.7,57.26Z"/><path class="cls-2" d="M323.23,72.74h-19.7A5.5,5.5,0,0,0,305.85,76a7.77,7.77,0,0,0,4.33,1.13,9.48,9.48,0,0,0,3.37-.55,10.17,10.17,0,0,0,2.88-1.8l5,5.2q-4,4.4-11.55,4.4a18.43,18.43,0,0,1-8.35-1.8,13.67,13.67,0,0,1-.3-24.4,17.08,17.08,0,0,1,15-.13,12.78,12.78,0,0,1,5.22,4.85,14.29,14.29,0,0,1,1.93,7.53C323.38,70.45,323.33,71.24,323.23,72.74Zm-18-8.4a5.59,5.59,0,0,0-1.87,3.4h11.1a5.65,5.65,0,0,0-1.88-3.4,6,6,0,0,0-7.35,0Z"/><polygon class="cls-2" points="236.89 59.64 233.53 48.89 224.43 48.89 221.96 56.33 213.19 83.89 221.73 83.89 228.73 62.59 232.29 73.91 236.89 59.64"/><polygon class="cls-2" points="213.3 59.43 209.98 48.89 199.78 48.89 208.27 75.07 213.3 59.43"/><polygon class="cls-2" points="247.93 48.89 247.92 48.92 247.97 48.92 236.84 83.89 246.03 83.89 257.38 48.89 247.93 48.89"/><path class="cls-2" d="M96.83,84.34a11.9,11.9,0,0,0,4.45-.85,9.78,9.78,0,0,0,3.6-2.5v2.9h9.05V56.79h-9.5V69.84A7,7,0,0,1,103,74.66a4.72,4.72,0,0,1-3.67,1.58A4.08,4.08,0,0,1,96,74.84a7,7,0,0,1-1.15-4.45V56.79h-9.5V71.94q0,6.19,3.12,9.3A11.42,11.42,0,0,0,96.83,84.34Z"/><path class="cls-2" d="M162.3,59.34a10.72,10.72,0,0,0-8-3,12.77,12.77,0,0,0-5.35,1.1,10.35,10.35,0,0,0-4,3.15,8.66,8.66,0,0,0-3.65-3.2,11.92,11.92,0,0,0-5.1-1,12.13,12.13,0,0,0-4.53.82,9.55,9.55,0,0,0-3.57,2.48V56.79H119v27.1h9.5V70.44a6.77,6.77,0,0,1,1.3-4.55,4.38,4.38,0,0,1,3.5-1.5q4.09,0,4.1,5.55v14h9.5V70.44a6.77,6.77,0,0,1,1.3-4.55,4.32,4.32,0,0,1,3.45-1.5,3.64,3.64,0,0,1,3,1.35,6.68,6.68,0,0,1,1.08,4.2v14h9.5V68.39Q165.28,62.33,162.3,59.34Z"/><path class="cls-2" d="M59.68,83.26a17.93,17.93,0,0,0,7,1.33q6.64,0,10.07-3.4T80.18,71V50L70.38,61.5V71.59a5.67,5.67,0,0,1-1.13,3.8A4.11,4.11,0,0,1,66,76.69c-2.06,0-4-1.11-5.76-3.3L54.8,79.73A12.8,12.8,0,0,0,59.68,83.26Z"/><polygon class="cls-2" points="71.95 48.89 58.28 48.89 58.28 56.54 65.42 56.54 71.95 48.89"/><rect class="cls-2" x="260.13" y="46.34" width="9.5" height="7.1"/></svg>