<svg fill="none" height="45" viewBox="0 0 135 45" width="135" xmlns="http://www.w3.org/2000/svg"><title>fintech_devcon</title><g fill="#f5f1e3"><path d="m52.6499 8.79419h2.5538v2.97491H52.654v9.395h-3.4349v-9.395h-1.624V8.79419h1.624v-.18492c0-2.37187 1.3642-4.06837 4.32-4.06837.645-.01349 1.2895.04722 1.9204.18091l-.2558 2.50454c-.3828-.07176-.7716-.10676-1.1612-.10453-.9095.0-1.3885.44624-1.3885 1.46333z"></path><path d="m56.3893 7.48769V5.16406h3.585v2.32363zm.0731 13.66841V8.79423h3.4632V21.1642z"></path><path d="m64.8261 21.1643h-3.4632V8.79435h3.4632v3.46935h.0244c.5562-2.84221 1.9935-3.81106 3.9139-3.81106 2.6025.0 3.6865 1.77686 3.6865 4.42216v8.2895H69.008v-7.2564c0-1.2784-.5522-2.2432-1.9935-2.2432s-2.1884.8442-2.1884 2.2432z"></path><path d="m74.4729 11.7691h-1.4048V8.79418h1.3886V5.67456h3.4348v3.10756h3.1587V11.757h-3.1587v4.8242c0 .9889.3532 1.4593 1.3885 1.4593.5318-.0353 1.0576-.1311 1.5672-.2855l.3776 3.2885c-.9099.3286-1.8737.4868-2.842.4663-2.7812.0-3.9424-1.9015-3.9424-4.2533z"></path><path d="m81.4198 15.2386c0-4.2814 2.298-6.78596 6.1876-6.78596 3.6865.0 5.4811 2.41206 5.4811 5.79296.0.5508.0.9689-.0487 1.6443h-8.1974c.2274 1.7769 1.1369 2.5568 2.7528 2.5568s2.1234-.8041 2.3995-1.7729l2.9801.8603c-.5806 2.2432-2.1437 3.9679-5.4283 3.9679-3.6013.0-6.1267-2.1387-6.1267-6.2634zm3.4592-1.3588h5.0548c-.1015-1.6402-.8851-2.4764-2.4361-2.4764-1.5509.0-2.3913.7317-2.6187 2.4764z"></path><path d="m99.9864 11.7049c-1.5428.0-2.6553.993-2.6553 3.2644s1.0637 3.3126 2.6799 3.3126c1.616.0 2.196-1.1216 2.501-2.6895l3.309.6553c-.406 3.2362-2.148 5.2945-5.737 5.2945-3.7882.0-6.2892-2.191-6.2892-6.4684.0-4.1769 2.436-6.60505 6.2162-6.60505 3.78.0 5.327 1.90555 5.81 5.22615l-3.338.4945c-.276-1.4553-.958-2.4845-2.4966-2.4845z"></path><path d="m110.214 21.1642h-3.447V5.16406h3.459v7.09954h.024c.557-2.84223 1.998-3.81108 3.918-3.81108 2.599.0 3.687 1.77688 3.687 4.42218v8.2895h-3.435v-7.2564c0-1.2784-.556-2.2432-1.998-2.2432-1.441.0-2.196.8322-2.196 2.2432z"></path><path d="m130.6 21.1641v2.8945h-11.62v-2.8945z"></path><path d="m56.4745 36.7542h-.0528c-.5846 2.6131-1.9488 3.7066-3.9911 3.7066-2.907.0-4.397-2.4523-4.397-6.4724.0-4.1729 1.5672-6.6252 4.4661-6.6011 2.0706-.0241 3.3861 1.0694 3.9667 3.7066h.0487v-6.995h3.4348v15.996h-3.4348zm0-2.6854v-.2533c0-2.01-.9582-3.2603-2.5254-3.2603-1.7418.0-2.5254 1.2543-2.5254 3.4171.0 2.0382.7593 3.2643 2.5254 3.2643 1.5672.0161 2.5254-1.1336 2.5254-3.1678z"></path><path d="m60.8188 34.1732c0-4.2815 2.2981-6.786 6.1876-6.786 3.6906.0 5.4811 2.4121 5.4811 5.793.0.5508.0.9648-.0487 1.6442h-8.1851c.2273 1.7769 1.1368 2.5568 2.7527 2.5568s2.1234-.804 2.3995-1.7728l2.9801.8603c-.5806 2.2432-2.1437 3.9678-5.4283 3.9678-3.6135.0-6.1389-2.1427-6.1389-6.2633zm3.4592-1.3588h5.0548c-.1015-1.6443-.8851-2.4764-2.436-2.4764-1.551.0-2.3914.7276-2.6188 2.4764z"></path><path d="m76.6572 40.0949-4.4661-12.3659h3.719l1.4942 4.8523c.406 1.3548.8566 2.7136 1.218 4.0442h.1299c.406-1.3065.812-2.6894 1.2383-4.0442l1.5429-4.8523h3.585l-4.4661 12.3659z"></path><path d="m90.7742 30.6234c-1.5388.0-2.6513.993-2.6513 3.2603.0 2.2674 1.0597 3.3166 2.6797 3.3166s2.1965-1.1216 2.501-2.6894l3.3049.6512c-.406 3.2362-2.1437 5.2985-5.7328 5.2985-3.7881.0-6.2891-2.1909-6.2891-6.4724.0-4.1728 2.4361-6.601 6.216-6.601s5.3268 1.9055 5.8059 5.2262l-3.3333.4985c-.2761-1.4433-.9582-2.4885-2.501-2.4885z"></path><path d="m97.3434 33.9119c0-4.1247 2.436-6.5247 6.2116-6.5247 3.776.0 6.192 2.4121 6.192 6.5247s-2.351 6.5487-6.192 6.5487c-3.8406.0-6.2116-2.4763-6.2116-6.5487zm3.4596-.0282c0 2.0101.962 3.3166 2.728 3.3166s2.777-1.3065 2.777-3.3166c0-2.01-1.007-3.2603-2.753-3.2603s-2.752 1.2784-2.752 3.2603z"></path><path d="m114.116 40.0948h-3.464V27.7289h3.464v3.4694h.024c.556-2.8463 1.994-3.8111 3.914-3.8111 2.602.0 3.691 1.7769 3.691 4.4221v8.2694h-3.439v-7.2362c0-1.2784-.553-2.2432-1.994-2.2432s-2.196.8322-2.196 2.2432z"></path><path d="m22.1163 5.64456-6.7198 3.84339V4.53906h-4.7163V22.5162h4.7163v-4.9454l6.7198 3.84v-5.3863l-4.3651-2.4968 4.3651-2.4969z"></path></g><path d="m3.96033 16.0245 4.36506-2.4969-4.36506-2.4968V5.64453l9.07797 5.18997v5.3863l-9.07797 5.1899z" fill="#fc81ca"></path><path d="m40.2722 11.1926H22.1163v4.67h4.9946l-3.8781 6.6536h5.4398l2.5216-4.3221 2.5217 4.3221h5.4398l-3.8816-6.6536h4.9981z" fill="#f5f1e3"></path><path d="m28.6725 4.53906 2.5217 4.3221 2.5216-4.3221h5.4398l-5.2415 8.98864h-5.4398l-5.2416-8.98864z" fill="#26cb96"></path><path d="m28.8395 22.5164v4.9454l-6.7232-3.8399v5.3862l4.365 2.4969-4.365 2.4968v5.3863l6.7232-3.8434v4.9488h4.7129V22.5164z" fill="#f5f1e3"></path><path d="m40.272 29.0081-4.365 2.4968 4.365 2.4969v5.3862l-9.0779-5.1899v-5.3863l9.0779-5.19z" fill="#9760ff"></path><path d="m17.1216 29.1734 3.8781-6.657h-5.4398l-2.5216 4.3221-2.5217-4.3221H5.07681l3.8816 6.657H3.96033v4.6665H22.1162v-4.6665z" fill="#f5f1e3"></path><path d="m15.5599 40.4935-2.5217-4.3221-2.5216 4.3221H5.07678l5.24152-8.9886h5.4398l5.2416 8.9886z" fill="#fcbc2c"></path></svg>